<?xml version="1.0" standalone="no"?>
<!DOCTYPE svg PUBLIC "-//W3C//DTD SVG 20010904//EN"
 "http://www.w3.org/TR/2001/REC-SVG-20010904/DTD/svg10.dtd">
<svg version="1.0" xmlns="http://www.w3.org/2000/svg"
 width="128.000000pt" height="128.000000pt" viewBox="0 0 128.000000 128.000000"
 preserveAspectRatio="xMidYMid meet">
<metadata>
Created by potrace 1.14, written by Peter Selinger 2001-2017
</metadata>
<g transform="translate(0.000000,128.000000) scale(0.100000,-0.100000)"
fill="#000000" stroke="none">
<path d="M730 1240 c-12 -22 -14 -22 -25 -7 -16 22 -25 21 -25 -3 0 -13 -5
-17 -14 -14 -10 4 -13 0 -10 -13 4 -15 -3 -21 -38 -30 -61 -16 -122 -64 -144
-112 -11 -23 -26 -40 -34 -40 -37 3 -48 -3 -60 -31 -16 -40 -3 -91 28 -105 16
-7 22 -18 22 -40 1 -46 35 -111 84 -160 33 -33 41 -47 32 -55 -19 -15 -55 -90
-64 -135 -5 -22 -7 -63 -6 -92 l3 -52 -27 11 c-46 20 -50 26 -43 66 12 72 5
167 -15 200 -52 89 -182 86 -251 -5 -50 -66 -31 -173 32 -173 28 0 54 29 48
55 -16 73 -2 105 45 105 85 0 105 -117 49 -274 -18 -48 -9 -83 36 -140 l30
-39 -24 -18 c-13 -9 -26 -16 -30 -13 -8 5 -86 -33 -94 -45 -14 -24 31 -32 188
-33 87 0 117 -4 117 -13 0 -18 30 -27 45 -15 9 8 15 8 20 0 4 -7 25 -8 58 -4
29 4 61 8 72 8 34 2 48 16 34 32 -6 8 -10 16 -8 17 2 2 19 14 37 26 l32 22 -9
-23 c-9 -25 -4 -49 12 -59 16 -11 171 -8 184 3 7 5 17 7 23 3 5 -3 10 1 10 10
0 10 -5 13 -11 9 -9 -5 -10 1 -5 19 5 21 3 25 -8 21 -8 -3 -12 -12 -9 -20 3
-9 -1 -14 -12 -14 -10 0 -15 5 -12 14 3 7 0 19 -6 26 -9 10 -9 11 1 6 7 -4 12
-2 12 6 0 10 3 9 11 -2 8 -11 12 -12 16 -2 6 16 29 16 36 -1 3 -7 3 -25 2 -40
-3 -28 -3 -28 43 -21 26 4 50 12 54 18 7 11 -37 44 -69 51 -10 2 -30 8 -46 14
-25 10 -26 13 -15 33 7 13 15 25 18 28 4 3 15 27 27 54 30 70 12 125 -40 126
-10 0 -20 8 -23 18 -18 53 -81 165 -111 196 l-36 36 47 41 c53 47 87 106 94
164 3 25 13 48 28 62 17 15 24 33 24 58 0 42 -31 79 -59 70 -14 -4 -20 1 -24
17 -9 33 -65 90 -112 112 -22 10 -47 22 -55 26 -9 5 -14 19 -13 34 2 23 0 25
-13 11 -19 -19 -38 -20 -31 -2 3 8 2 20 -3 27 -6 9 -11 7 -20 -10z m-298
-1120 c14 -10 29 -16 33 -12 5 4 5 1 1 -5 -8 -15 -46 -17 -46 -3 0 5 -10 15
-22 21 -20 10 -21 10 -11 -2 9 -11 8 -19 -4 -34 -12 -16 -14 -16 -10 -3 3 10
2 20 -3 23 -6 4 -10 1 -10 -4 0 -6 -6 -11 -14 -11 -8 0 -21 -6 -28 -13 -7 -6
-19 -13 -26 -15 -23 -4 -12 8 26 27 20 11 33 20 27 21 -13 1 36 29 51 30 6 0
23 -9 36 -20z m-102 -4 c0 -9 -74 -46 -84 -42 -6 2 -3 5 7 5 9 1 17 5 17 9 0
5 12 13 28 19 15 6 28 11 30 12 1 1 2 -1 2 -3z m771 -14 c-8 -3 -7 -8 6 -18
17 -13 17 -13 -4 -14 -15 0 -20 5 -18 18 2 9 4 21 4 25 1 5 6 5 13 1 9 -6 9
-9 -1 -12z m49 -23 c0 -14 -17 -10 -23 5 -4 10 -1 13 9 9 7 -3 14 -9 14 -14z
m-680 -4 c-7 -8 -18 -15 -24 -15 -6 0 -2 7 8 15 25 19 32 19 16 0z m-116 -16
c-3 -5 -10 -7 -15 -3 -5 3 -7 10 -3 15 3 5 10 7 15 3 5 -3 7 -10 3 -15z m641
5 c13 -5 14 -8 3 -15 -19 -13 -28 -11 -28 6 0 17 2 18 25 9z"/>
<path d="M1044 100 c0 -13 4 -16 10 -10 7 7 7 13 0 20 -6 6 -10 3 -10 -10z"/>
</g>
</svg>
